<?xml version="1.0" encoding="UTF-8"?>
<svg version="1.1" xmlns="http://www.w3.org/2000/svg" width="512" height="512">
<path d="M0 0 C2.9831177 2.40020964 5.48177974 5.12349637 8 8 C8.55171875 8.62132812 9.1034375 9.24265625 9.671875 9.8828125 C10.7946542 11.16064216 11.91022187 12.44483458 13.01953125 13.734375 C15.46605768 16.53316263 17.98076721 19.26689817 20.5 22 C23.53906692 25.30011301 26.56156514 28.60949824 29.5 32 C32.40086229 35.34501346 35.37851832 38.61579484 38.375 41.875 C39.08112427 42.64408691 39.08112427 42.64408691 39.80151367 43.42871094 C42.03151183 45.85753559 44.26266106 48.28526882 46.49609375 50.7109375 C48.69172321 53.11761398 50.85127644 55.55145455 53 58 C53.62390625 58.67546875 54.2478125 59.3509375 54.890625 60.046875 C58.66451736 64.45562776 59.83792219 67.82977566 59.4609375 73.6640625 C58.76813951 77.17502181 57.37543691 79.36062566 55 82 C51.5380061 84.28491597 48.56985915 84.23245327 44.484375 84.1953125 C43.23398437 84.18886719 41.98359375 84.18242187 40.6953125 84.17578125 C39.39335937 84.15902344 38.09140625 84.14226562 36.75 84.125 C35.43257813 84.11597656 34.11515625 84.10695313 32.7578125 84.09765625 C29.50502538 84.07408533 26.25260411 84.04118022 23 84 C22.96559814 84.59611084 22.93119629 85.19222168 22.89575195 85.80639648 C19.76372514 136.81715882 1.99583496 184.90081707 -32.93359375 222.74609375 C-34.76740558 224.7463006 -36.51037367 226.79343238 -38.25 228.875 C-46.95873845 238.82784394 -57.31023674 247.27544055 -68 255 C-68.5372168 255.39364746 -69.07443359 255.78729492 -69.62792969 256.19287109 C-82.81836298 265.76278486 -97.79361238 274.14425209 -113 280 C-113.12955078 281.62808594 -113.12955078 281.62808594 -113.26171875 283.2890625 C-113.40250679 284.7344864 -113.54449795 286.17979346 -113.6875 287.625 C-113.74099609 288.33785156 -113.79449219 289.05070312 -113.84960938 289.78515625 C-114.43686292 295.3512985 -115.87603408 298.15865552 -120 302 C-124.12680977 303.6922244 -127.6244804 304.25186725 -132.06529236 304.26069641 C-133.2582341 304.26778122 -134.45117584 304.27486603 -135.68026733 304.28216553 C-137.62312119 304.2784494 -137.62312119 304.2784494 -139.60522461 304.2746582 C-140.99375176 304.2790091 -142.38227652 304.28419351 -143.77079773 304.29014587 C-147.53115028 304.30350606 -151.29140214 304.30411791 -155.05177379 304.30158257 C-158.19536346 304.3005109 -161.33893292 304.30540121 -164.48251826 304.310188 C-171.90071448 304.32127273 -179.31886006 304.32172632 -186.73706055 304.31567383 C-194.38062726 304.30963321 -202.02400994 304.32194958 -209.66754526 304.3432439 C-216.23928305 304.36087661 -222.81096235 304.36685865 -229.38272291 304.36360615 C-233.30368626 304.36179592 -237.22451828 304.36440352 -241.14546013 304.37832069 C-244.83340414 304.3909218 -248.52106179 304.38893359 -252.20900154 304.37590981 C-254.20074336 304.37242746 -256.19249403 304.38370497 -258.1842041 304.39547729 C-265.89414343 304.35025095 -271.52865169 304.12918043 -277.45703125 298.78515625 C-279.16504943 295.70207534 -279.07164757 293.92834687 -278.78930664 290.48120117 C-278.59380428 286.55662027 -278.90577156 283.39096942 -281 280 C-287.40096053 275.07533197 -295.41919998 272.45467144 -302.82617188 269.40136719 C-307.27427156 267.4373601 -311.28291207 265.01884119 -315.3125 262.3125 C-315.99304443 261.85560791 -316.67358887 261.39871582 -317.37475586 260.92797852 C-319.26356779 259.63703039 -321.13459673 258.32448268 -323 257 C-324.04800781 256.26394531 -325.09601563 255.52789062 -326.17578125 254.76953125 C-341.87045629 243.35711192 -355.99016881 230.23784926 -368 215 C-368.89451996 213.88540761 -369.78905158 212.77082457 -370.68359375 211.65625 C-371.58168114 210.52158617 -372.47883502 209.38618277 -373.375 208.25 C-374.59316406 206.71085937 -374.59316406 206.71085937 -375.8359375 205.140625 C-378.97195232 200.58944103 -380.94315161 196.76229995 -381.125 191.125 C-379.29618784 181.42675372 -368.94202259 173.54042841 -362.40234375 166.6484375 C-359.58033745 163.66470359 -356.91177187 160.58162533 -354.30053711 157.41235352 C-351.37778128 154.23830762 -348.10449911 153.88734453 -344 153.6875 C-338.57944245 153.87021542 -336.03330572 155.91863355 -332.3125 159.8125 C-329.94352673 162.67326012 -327.82930808 165.67333359 -325.72436523 168.73193359 C-314.62562793 184.75926271 -301.21192588 197.25183207 -285 208 C-285.07516846 206.69360062 -285.07516846 206.69360062 -285.15185547 205.36080933 C-285.62674962 197.09491851 -286.09777293 188.82881774 -286.56460571 180.56246758 C-286.80465758 176.31414642 -287.04612999 172.06591658 -287.29101562 167.81787109 C-287.52792483 163.70723539 -287.76088483 159.5963921 -287.99127197 155.48538589 C-288.07919861 153.92828734 -288.16847422 152.37126426 -288.25921631 150.81432724 C-288.81886838 141.1934156 -289.12052376 131.64106409 -289 122 C-290.794375 122.0928125 -290.794375 122.0928125 -292.625 122.1875 C-296.77257138 122.18015917 -299.47353053 121.2963057 -303 119 C-306.08360461 115.59740181 -307.11702168 112.53646296 -307.16113281 107.9909668 C-307.17074036 107.18970871 -307.1803479 106.38845062 -307.19024658 105.56291199 C-307.19449646 104.70039322 -307.19874634 103.83787445 -307.203125 102.94921875 C-307.20882507 102.05765579 -307.21452515 101.16609283 -307.22039795 100.24751282 C-307.22984349 98.36041448 -307.23638016 96.47329968 -307.24023438 94.58618164 C-307.24992807 91.70885179 -307.28095055 88.83223999 -307.3125 85.95507812 C-307.31903157 84.1197959 -307.32428144 82.28450857 -307.328125 80.44921875 C-307.3404718 79.59277267 -307.3528186 78.7363266 -307.36553955 77.85392761 C-307.34186233 71.4577798 -306.31760049 67.36525944 -301.69677734 62.64941406 C-296.44201938 59.54005887 -289.74200178 60.51575221 -283.8515625 60.609375 C-282.47009096 60.6168437 -281.08860876 60.62253366 -279.7071228 60.62652588 C-276.08683562 60.64173311 -272.4671995 60.68097083 -268.84716797 60.7253418 C-265.14689947 60.76640169 -261.44652484 60.78455963 -257.74609375 60.8046875 C-250.49710036 60.84747133 -243.24864172 60.91566121 -236 61 C-236.01129189 60.09142998 -236.01129189 60.09142998 -236.02281189 59.164505 C-236.05285099 56.39745257 -236.07144406 53.63043457 -236.08984375 50.86328125 C-236.10188843 49.91038208 -236.11393311 48.95748291 -236.12634277 47.97570801 C-236.16677359 39.87020773 -235.50554414 33.90465733 -229.94140625 27.70703125 C-223.11653609 21.20441465 -217.18214449 19.68916784 -207.98046875 19.6640625 C-207.1224617 19.6574057 -206.26445465 19.6507489 -205.38044739 19.64389038 C-203.57095471 19.63380002 -201.76142508 19.62907224 -199.9519043 19.62939453 C-197.20623352 19.62502978 -194.4621829 19.58869619 -191.71679688 19.55078125 C-189.95052627 19.54491035 -188.18424811 19.54094278 -186.41796875 19.5390625 C-185.20345284 19.51750595 -185.20345284 19.51750595 -183.96440125 19.49551392 C-177.04684111 19.55003032 -171.11988618 21.48293929 -165.6953125 25.859375 C-165.17710937 26.48328125 -164.65890625 27.1071875 -164.125 27.75 C-163.59132813 28.36359375 -163.05765625 28.9771875 -162.5078125 29.609375 C-158.06591782 36.65196449 -157.59421584 42.88430704 -157.8125 51 C-157.82603516 51.96550781 -157.83957031 52.93101562 -157.85351562 53.92578125 C-157.88854542 56.28445425 -157.93765916 58.64191771 -158 61 C-157.23658295 60.99111755 -156.47316589 60.98223511 -155.68661499 60.9730835 C-148.47760916 60.89279802 -141.26882137 60.83196529 -134.05948448 60.79275131 C-130.3534265 60.77191285 -126.6477392 60.74366497 -122.94189453 60.69824219 C-119.36274214 60.65464888 -115.78394536 60.63083477 -112.20454788 60.62049103 C-110.84181753 60.61312365 -109.47910573 60.59873662 -108.11652756 60.57707977 C-96.11486346 60.39398285 -96.11486346 60.39398285 -92.30322266 62.64941406 C-86.96205 68.10042216 -86.54950678 73.08288405 -86.6015625 80.34375 C-86.59869232 81.23106812 -86.59582214 82.11838623 -86.59286499 83.03259277 C-86.59083067 84.90178061 -86.59631615 86.77099004 -86.60888672 88.64013672 C-86.62494956 91.491047 -86.60901668 94.34053973 -86.58984375 97.19140625 C-86.59182629 99.01302394 -86.5956702 100.83464076 -86.6015625 102.65625 C-86.59548981 103.50328491 -86.58941711 104.35031982 -86.5831604 105.22302246 C-86.64219827 110.22395165 -87.2523215 113.65670594 -90 118 C-93.4787997 121.15266223 -96.54005111 122.13868769 -101.1875 122.0625 C-102.445625 122.041875 -103.70375 122.02125 -105 122 C-104.98984863 122.81203888 -104.97969727 123.62407776 -104.96923828 124.46072388 C-104.90313146 134.04680367 -105.31745617 143.55094675 -105.875 153.1171875 C-105.96502334 154.71141666 -106.05469777 156.30566555 -106.14404297 157.89993286 C-106.37731929 162.04608041 -106.61525529 166.19194712 -106.85424805 170.33776855 C-107.09842083 174.58829724 -107.33806798 178.83908099 -107.578125 183.08984375 C-108.04771808 191.39348163 -108.52224667 199.69682764 -109 208 C-106.74890384 206.41667365 -104.50107284 204.82902971 -102.25488281 203.23876953 C-101.62131866 202.79382645 -100.98775452 202.34888336 -100.33499146 201.89045715 C-95.68696622 198.59241401 -91.68252295 194.99835595 -87.75 190.875 C-82.01147122 185.14611716 -82.01147122 185.14611716 -78.21484375 184.59765625 C-76.58527376 184.81677926 -74.95838122 185.05740492 -73.3359375 185.32421875 C-70.21935175 184.89164916 -68.99422003 183.3094012 -67.05981445 180.93188477 C-63.29053569 176.47648255 -63.29053569 176.47648255 -62.26171875 171.109375 C-62.50535156 170.41328125 -62.74898438 169.7171875 -63 169 C-63.45602228 162.85306953 -62.83490201 159.8120669 -59.4375 154.5 C-47.55453671 134.9568354 -41.97840321 113.53132079 -39 91 C-38.67131841 88.66597917 -38.33549203 86.33305469 -38 84 C-39.22517334 84.0314209 -39.22517334 84.0314209 -40.47509766 84.06347656 C-44.19160555 84.1468513 -47.90791633 84.19872988 -51.625 84.25 C-52.91019531 84.28351563 -54.19539063 84.31703125 -55.51953125 84.3515625 C-67.41251913 84.4748059 -67.41251913 84.4748059 -72 80 C-75.03959318 75.44061022 -74.98233156 71.32861866 -74 66 C-71.93917215 62.10803408 -69.03315857 59.16672095 -66 56 C-64.7900795 54.70069492 -63.58187313 53.3997924 -62.375 52.09765625 C-59.82803954 49.35850826 -57.26295874 46.63830835 -54.68359375 43.9296875 C-51.58106601 40.65275005 -48.59773944 37.28774931 -45.64086914 33.87939453 C-43.30802222 31.20743268 -40.90710747 28.60533985 -38.5 26 C-35.46031004 22.70047223 -32.43841941 19.39048393 -29.5 16 C-28.96375 15.38898438 -28.4275 14.77796875 -27.875 14.1484375 C-26.82681365 12.94739065 -25.78198246 11.74331841 -24.75 10.52832031 C-23.34717497 8.88139576 -21.92486778 7.25286794 -20.5 5.625 C-20.06107422 5.10035156 -19.62214844 4.57570312 -19.16992188 4.03515625 C-13.95315443 -1.85003354 -7.14168 -3.55715862 0 0 Z M-219 40 C-222.13404247 46.26808495 -220 53.99206799 -220 61 C-204.82 61 -189.64 61 -174 61 C-172.02179902 43.40556386 -172.02179902 43.40556386 -178 37 C-181.01568291 35.49215855 -184.14684034 35.79578888 -187.45703125 35.76171875 C-188.56699715 35.74961113 -188.56699715 35.74961113 -189.6993866 35.73725891 C-191.26709655 35.72342117 -192.83483659 35.71269762 -194.40258789 35.70483398 C-196.79306632 35.68763978 -199.18215459 35.64375651 -201.57226562 35.59960938 C-203.09634401 35.58948044 -204.62043414 35.58096497 -206.14453125 35.57421875 C-206.85615921 35.55671066 -207.56778717 35.53920258 -208.30097961 35.52116394 C-213.15406292 35.54223324 -215.59791763 36.55381285 -219 40 Z " fill="#000101" transform="translate(453,190)"/>
<path d="M0 0 C0.71687988 0.02626465 1.43375977 0.0525293 2.17236328 0.07958984 C8.10541361 0.42908035 12.08514678 2.1982631 16.8125 5.6875 C19.25221112 8.83344329 20.04235155 11.04725189 21.1875 14.8125 C22.33471434 18.56283122 22.95973737 20.4988771 25.625 23.4375 C31.24751999 26.31732731 34.2094179 25.50219648 40.1875 23.75 C45.40902095 23.28379277 49.78172103 23.81281402 54.1875 26.75 C57.62619225 29.97246617 60.67515401 33.06657746 62.0625 37.625 C62.43375 38.32625 62.805 39.0275 63.1875 39.75 C65.00246993 40.31078564 65.00246993 40.31078564 67.17578125 40.63671875 C72.30028527 41.67579802 76.76718145 43.5001549 81.5 45.6875 C82.3573877 46.0801001 83.21477539 46.4727002 84.09814453 46.87719727 C117.1929344 62.29067194 147.03205658 84.72191343 168.97412109 114.12646484 C170.09995693 115.6328649 171.24642194 117.12378722 172.39453125 118.61328125 C175.82960706 123.22369868 178.40870754 126.77739648 178.1875 132.75 C176.21399453 139.69381554 172.98635862 143.69126103 167.9375 148.75 C166.63928878 150.08203235 165.34240986 151.41536449 164.046875 152.75 C163.4082251 153.40347412 162.7695752 154.05694824 162.11157227 154.73022461 C159.5606591 157.40801989 157.14047073 160.18756683 154.7331543 162.99438477 C151.40497497 166.77466238 148.38170616 169.81247676 143.25 170.75 C139.05431531 170.98929761 135.59902054 170.25801282 132.1875 167.75 C129.55807677 164.95248579 127.38120905 161.89542664 125.1875 158.75 C119.38066256 150.46689926 113.14716527 143.06022619 106.1875 135.75 C105.23810547 134.70392578 105.23810547 134.70392578 104.26953125 133.63671875 C95.50780298 124.29474358 83.69567227 115.38060789 72.1875 109.75 C71.5275 109.75 70.8675 109.75 70.1875 109.75 C69.47787109 111.30847656 69.47787109 111.30847656 68.75390625 112.8984375 C59.51197347 132.61235297 59.51197347 132.61235297 50.67578125 136.99609375 C46.11324213 138.37846432 41.73401573 138.26550524 37.1875 136.75 C32.91965757 136.26247493 29.33313983 136.24082674 25.375 138 C22.46268023 141.661202 21.50108994 145.46073043 20.140625 149.8984375 C18.46530381 154.91066893 16.50697252 157.05292018 11.875 159.5 C1.27198844 163.09424121 -12.1004674 163.24176753 -22.8125 159.75 C-27.25776093 157.40613515 -29.72640249 155.31954692 -31.8125 150.75 C-32.28093537 149.06527629 -32.73833223 147.37746272 -33.1875 145.6875 C-34.13193739 142.45424751 -34.782599 140.78693652 -36.9375 138.125 C-41.82364319 135.78814891 -46.73173022 136.05641007 -51.8125 137.75 C-57.43409031 138.11862887 -61.03414318 138.03512031 -65.8125 134.75 C-73.59587113 127.91105465 -77.55641767 118.97528483 -81.8125 109.75 C-112.51445642 120.8049955 -136.48455673 153.59563737 -149.93359375 181.671875 C-158.52011301 200.09338557 -162.5698117 219.61367295 -164.8125 239.75 C-163.67820557 239.72643433 -163.67820557 239.72643433 -162.52099609 239.70239258 C-159.07657424 239.63981953 -155.63227226 239.60093795 -152.1875 239.5625 C-150.99769531 239.53736328 -149.80789062 239.51222656 -148.58203125 239.48632812 C-141.1173158 239.42377464 -136.24578236 239.76846532 -130.4375 244.8125 C-128.10999183 249.01991862 -127.85092358 253.04817412 -128.8125 257.75 C-131.68835918 262.86497095 -135.59564732 266.91592311 -139.625 271.125 C-140.88891808 272.46139156 -142.15195054 273.79862132 -143.4140625 275.13671875 C-144.00993164 275.76755371 -144.60580078 276.39838867 -145.21972656 277.04833984 C-147.56271709 279.55150416 -149.80696108 282.13217122 -152.04296875 284.73046875 C-154.4213442 287.44486193 -156.86758905 290.09572387 -159.3125 292.75 C-162.35144492 296.05022784 -165.37406211 299.35949474 -168.3125 302.75 C-171.30198881 306.19441102 -174.35936483 309.57245476 -177.4375 312.9375 C-177.89318359 313.43701172 -178.34886719 313.93652344 -178.81835938 314.45117188 C-188.94041561 325.48406626 -188.94041561 325.48406626 -195.1875 326.0625 C-202.0037119 325.47489553 -205.91202246 322.06930116 -210.25 317.0625 C-210.72953125 316.52431641 -211.2090625 315.98613281 -211.703125 315.43164062 C-213.08259045 313.87927721 -214.44956436 312.31687665 -215.8125 310.75 C-216.43253906 310.04230469 -217.05257812 309.33460938 -217.69140625 308.60546875 C-218.775927 307.36414981 -219.8579452 306.12064016 -220.9375 304.875 C-223.83169336 301.59491419 -226.80468892 298.38731943 -229.76782227 295.16967773 C-232.29990116 292.41526572 -234.80285268 289.64257501 -237.25 286.8125 C-239.8253234 283.83478232 -242.48245999 280.94613521 -245.16894531 278.06933594 C-262.25586284 259.75815502 -262.25586284 259.75815502 -262.16015625 250.296875 C-261.58586399 246.08970028 -259.96622024 244.55330688 -256.8125 241.75 C-252.98092089 239.83564029 -249.89412427 239.51274262 -245.63671875 239.5546875 C-244.47978516 239.56113281 -243.32285156 239.56757813 -242.13085938 239.57421875 C-240.33358398 239.59935547 -240.33358398 239.59935547 -238.5 239.625 C-237.28248047 239.63402344 -236.06496094 239.64304687 -234.81054688 239.65234375 C-231.81099726 239.67586963 -228.81184956 239.70874347 -225.8125 239.75 C-225.77809814 239.18418213 -225.74369629 238.61836426 -225.70825195 238.03540039 C-222.49120741 188.23355583 -204.83724914 137.43167912 -169.8125 100.75 C-166.8512106 99.2693553 -164.08164933 99.69162233 -160.8125 99.75 C-156.55954367 99.75 -152.39267126 94.6397241 -149.39453125 91.77734375 C-146.77533849 88.70642939 -146.07866937 87.77997924 -146.375 83.875 C-146.54128906 83.19695312 -146.70757812 82.51890625 -146.87890625 81.8203125 C-146.8125 79.75 -146.8125 79.75 -144.75390625 77.3125 C-128.62601634 63.2621736 -97.27582226 39.75 -74.8125 39.75 C-74.56113281 39.02167969 -74.30976563 38.29335938 -74.05078125 37.54296875 C-72.71559989 34.53143982 -71.18224993 32.52013902 -69 30.0625 C-68.00033203 28.91201172 -68.00033203 28.91201172 -66.98046875 27.73828125 C-62.99812123 24.08600218 -59.26016385 23.44484685 -53.921875 23.53515625 C-51.7317647 23.75822304 -49.8480238 24.28288405 -47.75 24.9375 C-44.37545245 25.87413623 -43.64661176 25.70104937 -40 24.625 C-36.26877355 22.43016091 -34.34848347 20.62124054 -33.14453125 16.41796875 C-32.97308594 15.59941406 -32.80164063 14.78085937 -32.625 13.9375 C-31.01970878 8.13441516 -27.76729466 5.01656826 -22.8125 1.75 C-15.47792629 -0.6948579 -7.63949376 -0.36174035 0 0 Z M-17.6875 74 C-19.18001074 77.64835958 -19.49146674 80.90252181 -18.8125 84.75 C-16.59113437 89.11045847 -14.37682971 91.88277421 -9.8125 93.75 C-4.98526908 94.28635899 -2.83359214 94.27017901 1.5 92.0625 C5.6544881 88.48770791 7.01391779 86.31223989 7.625 80.8125 C7.44744127 76.5349487 5.99763746 74.01583542 3.1875 70.75 C-0.2746961 67.86483658 -3.30046884 67.21082135 -7.8203125 67.3984375 C-12.19704766 68.17080253 -14.9264496 70.68673952 -17.6875 74 Z " fill="#010101" transform="translate(261.8125,18.25)"/>
<path d="M0 0 C50.82 0 101.64 0 154 0 C154 10.01337154 154 10.01337154 153.55859375 13.5859375 C152.79407928 20.58077467 152.45104672 27.60157024 152.0625 34.625 C151.97595045 36.16146053 151.88936093 37.69791881 151.80273438 39.234375 C151.15460129 50.82058907 150.57072592 62.40975477 150 74 C148.83155531 97.71968443 147.54911796 121.43088374 145.9375 145.125 C145.85822266 146.29828857 145.77894531 147.47157715 145.69726562 148.68041992 C145.62056641 149.77845947 145.54386719 150.87649902 145.46484375 152.0078125 C145.399021 152.95285645 145.33319824 153.89790039 145.26538086 154.87158203 C144.92180579 158.92178527 144.44887651 162.96011139 144 167 C99.78 167 55.56 167 10 167 C8.87473959 159.12317713 8.87473959 159.12317713 8.64282227 155.43383789 C8.58920532 154.60079132 8.53558838 153.76774475 8.48034668 152.90945435 C8.39919617 151.57948929 8.39919617 151.57948929 8.31640625 150.22265625 C8.25674683 149.2771994 8.1970874 148.33174255 8.13562012 147.3576355 C7.94138262 144.25944661 7.75171298 141.16099953 7.5625 138.0625 C7.49586151 136.98702911 7.42922302 135.91155823 7.36056519 134.80349731 C6.44906127 120.08440202 5.64259208 105.36414195 4.95492554 90.63305664 C4.40828185 79.02167411 3.73033288 67.4206425 2.98828125 55.8203125 C2.9429809 55.11168879 2.89768055 54.40306507 2.85100746 53.67296791 C2.39312629 46.52247325 1.92936937 39.37238167 1.45673275 32.22284698 C1.32265335 30.1897521 1.18976736 28.15658286 1.05729675 26.12338257 C0.89365056 23.6166452 0.72763328 21.11006104 0.55879211 18.60366821 C0.48508896 17.47061249 0.4113858 16.33755676 0.33544922 15.17016602 C0.27042206 14.19161148 0.2053949 13.21305695 0.13839722 12.20484924 C-0.03713396 8.14009289 0 4.06854463 0 0 Z " fill="#6ABB7A" transform="translate(179,311)"/>
<path d="M0 0 C0.75410156 0.00322266 1.50820312 0.00644531 2.28515625 0.00976562 C3.06246094 0.01814453 3.83976562 0.02652344 4.640625 0.03515625 C5.43339844 0.03966797 6.22617187 0.04417969 7.04296875 0.04882812 C8.99222008 0.0605706 10.94143238 0.07850479 12.890625 0.09765625 C13.17035156 0.87109375 13.45007813 1.64453125 13.73828125 2.44140625 C17.61313162 12.50854161 22.07128779 19.68753813 32.140625 24.26171875 C39.16597574 26.39726571 46.76549294 25.39313481 53.890625 24.09765625 C58.51275075 30.16340483 62.0054536 35.66469471 63.890625 43.09765625 C63.33632813 43.68933594 62.78203125 44.28101563 62.2109375 44.890625 C61.48648438 45.68082031 60.76203125 46.47101563 60.015625 47.28515625 C59.29632813 48.06246094 58.57703125 48.83976562 57.8359375 49.640625 C52.58343316 56.27481221 53.21008447 64.04879416 53.890625 72.09765625 C55.46153539 78.19448683 58.34089245 81.79385519 62.890625 86.09765625 C63.703125 87.89453125 63.703125 87.89453125 63.890625 90.09765625 C62.29602475 93.98848085 60.07394715 97.51001281 57.890625 101.09765625 C57.25125 102.17015625 56.611875 103.24265625 55.953125 104.34765625 C53.890625 106.09765625 53.890625 106.09765625 50.828125 105.91015625 C50.22613281 105.77867187 49.62414062 105.6471875 49.00390625 105.51171875 C40.9697587 103.93756045 33.85706966 104.78509527 26.890625 109.09765625 C18.89065582 114.592297 15.76714994 120.71503154 13.890625 130.09765625 C6.630625 130.09765625 -0.629375 130.09765625 -8.109375 130.09765625 C-9.099375 126.79765625 -10.089375 123.49765625 -11.109375 120.09765625 C-15.44872746 113.29276262 -19.87707049 108.77460709 -27.421875 105.78515625 C-34.39501528 104.48507925 -41.15343321 104.88792724 -48.109375 106.09765625 C-58.109375 92.23464255 -58.109375 92.23464255 -58.109375 88.03515625 C-57.109375 86.09765625 -57.109375 86.09765625 -54.796875 83.91015625 C-49.23046961 78.08484829 -47.84040408 72.54150881 -47.609375 64.53515625 C-47.85836334 56.23554485 -49.62511808 51.48138432 -55.359375 45.59765625 C-56.266875 44.77265625 -57.174375 43.94765625 -58.109375 43.09765625 C-56.2242036 35.66469471 -52.73150075 30.16340483 -48.109375 24.09765625 C-46.80226562 24.33548828 -46.80226562 24.33548828 -45.46875 24.578125 C-35.41472772 26.13299124 -26.66626979 25.57990855 -18.109375 19.73046875 C-13.05693948 15.35314314 -11.3127599 10.06700875 -9.34765625 3.79296875 C-8.93902344 2.90351562 -8.53039062 2.0140625 -8.109375 1.09765625 C-5.39789851 0.11116896 -2.86559018 -0.02170902 0 0 Z M-8.984375 58.34765625 C-10.47688574 61.99601583 -10.78834174 65.25017806 -10.109375 69.09765625 C-7.88800937 73.45811472 -5.67370471 76.23043046 -1.109375 78.09765625 C3.71785592 78.63401524 5.86953286 78.61783526 10.203125 76.41015625 C14.3576131 72.83536416 15.71704279 70.65989614 16.328125 65.16015625 C16.15056627 60.88260495 14.70076246 58.36349167 11.890625 55.09765625 C8.4284289 52.21249283 5.40265616 51.5584776 0.8828125 51.74609375 C-3.49392266 52.51845878 -6.2233246 55.03439577 -8.984375 58.34765625 Z " fill="#E6A32C" transform="translate(253.109375,33.90234375)"/>
<path d="M0 0 C0.20753906 0.556875 0.41507813 1.11375 0.62890625 1.6875 C2.45895537 6.22050869 4.26243878 9.47823543 7.75 12.9375 C10.77245737 16.12751364 11.45606095 18.10105454 11.4375 22.5 C11.32658691 24.00298558 11.19295926 25.50533145 11 27 C9.97261719 27.50789063 8.94523438 28.01578125 7.88671875 28.5390625 C4.25577022 30.33892215 0.63393848 32.15634758 -2.98339844 33.98339844 C-4.62378789 34.81034537 -6.26832452 35.62906176 -7.9140625 36.4453125 C-21.49484243 43.46695414 -33.65183323 52.88393914 -44.52978516 63.56494141 C-45.94142302 64.94282374 -47.38231394 66.29054206 -48.82421875 67.63671875 C-79.68285115 97.08668319 -96.66069659 140.30895921 -98.2109375 182.51953125 C-98.33012071 188.86565031 -98.33012071 188.86565031 -97 195 C-93.6978772 196.1007076 -91.05916721 196.20627072 -87.58203125 196.31640625 C-86.32841797 196.35830078 -85.07480469 196.40019531 -83.78320312 196.44335938 C-82.47287109 196.48267578 -81.16253906 196.52199219 -79.8125 196.5625 C-78.47720022 196.60570992 -77.14191348 196.649325 -75.80664062 196.69335938 C-72.53786703 196.79956502 -69.26901667 196.90160997 -66 197 C-70.10391113 202.7349894 -74.55708315 207.91602558 -79.4375 213 C-83.85042567 217.62521586 -88.17465539 222.29527121 -92.36352539 227.125 C-95.1527609 230.32078229 -98.0405745 233.42329924 -100.921875 236.53613281 C-104.25683983 240.15282887 -107.45933306 243.85497966 -110.5625 247.671875 C-112 249 -112 249 -115 249 C-116.69824219 247.56640625 -116.69824219 247.56640625 -118.546875 245.5625 C-119.5678125 244.46615234 -119.5678125 244.46615234 -120.609375 243.34765625 C-121.66898438 242.18556641 -121.66898438 242.18556641 -122.75 241 C-123.4409375 240.25621094 -124.131875 239.51242187 -124.84375 238.74609375 C-128.76575434 234.5070853 -132.59783338 230.19699862 -136.38769531 225.83984375 C-138.71456416 223.18459183 -141.10409883 220.59321068 -143.5 218 C-146.64418534 214.57971622 -149.78753938 211.15920791 -152.875 207.6875 C-153.36742187 207.13449219 -153.85984375 206.58148438 -154.3671875 206.01171875 C-156.72203393 203.11041274 -158.85376647 200.05745079 -161 197 C-159.80455566 196.96241577 -159.80455566 196.96241577 -158.58496094 196.92407227 C-154.97314778 196.80801211 -151.36158898 196.68533069 -147.75 196.5625 C-146.49574219 196.52318359 -145.24148437 196.48386719 -143.94921875 196.44335938 C-142.14130859 196.38051758 -142.14130859 196.38051758 -140.296875 196.31640625 C-139.18666992 196.27974854 -138.07646484 196.24309082 -136.93261719 196.20532227 C-134.46978151 196.03289096 -132.35517035 195.70404561 -130 195 C-129.06248414 191.73643389 -128.75469816 188.61496124 -128.53515625 185.23046875 C-128.45885986 184.1024585 -128.38256348 182.97444824 -128.30395508 181.81225586 C-128.2242749 180.61608643 -128.14459473 179.41991699 -128.0625 178.1875 C-127.71900155 173.45750467 -127.36284136 168.72854862 -127 164 C-126.94263672 163.23623047 -126.88527344 162.47246094 -126.82617188 161.68554688 C-125.19724093 141.74660732 -118.4776784 121.99546145 -110 104 C-109.52675293 102.96939453 -109.52675293 102.96939453 -109.04394531 101.91796875 C-101.48267814 85.52608178 -91.50473748 70.01995059 -79.61376953 56.41381836 C-76.69567947 53.12889697 -76.69567947 53.12889697 -75.625 48.9375 C-75.87720046 46.05185684 -75.87720046 46.05185684 -76.87890625 43.68359375 C-77 41 -77 41 -74.61328125 38.0703125 C-73.52831517 37.07166563 -72.42721867 36.09032339 -71.3125 35.125 C-70.76916016 34.61453125 -70.22582031 34.1040625 -69.66601562 33.578125 C-68.05078125 32.1328125 -68.05078125 32.1328125 -65 30 C-63.04296875 30.1796875 -63.04296875 30.1796875 -61 31 C-56.64067881 31.52167232 -53.99695698 31.3298801 -50.484375 28.76171875 C-49.22943813 27.74942879 -47.98516576 26.72382189 -46.75 25.6875 C-14.31169037 0 -14.31169037 0 0 0 Z " fill="#5290F7" transform="translate(180,77)"/>
<path d="M0 0 C1.15039081 1.15039081 2.30044707 2.30111734 3.44921875 3.453125 C4.50916662 4.51040298 5.57454233 5.56225995 6.64453125 6.609375 C10.24356053 10.15153474 13.62203187 13.80863291 16.91796875 17.6328125 C19.56045779 20.63721842 22.27821314 23.56752389 25 26.5 C28.777747 30.57337161 32.50360147 34.67581663 36.1328125 38.8828125 C39.17343484 42.33054745 42.30873106 45.69271061 45.44555664 49.05297852 C49 52.89122964 49 52.89122964 49 54 C47.85785034 54.01401855 47.85785034 54.01401855 46.69262695 54.02832031 C43.2319338 54.08210937 39.77257982 54.16574184 36.3125 54.25 C35.11431641 54.26417969 33.91613281 54.27835937 32.68164062 54.29296875 C31.52470703 54.32519531 30.36777344 54.35742188 29.17578125 54.390625 C27.58117065 54.4220459 27.58117065 54.4220459 25.9543457 54.45410156 C21.75808282 55.22947912 19.21844244 57.35086944 16.70703125 60.75 C15.64659905 64.12463506 15.74218431 67.49540079 15.6875 71 C15.03166342 89.60844192 11.38023942 108.50703126 5 126 C4.5552077 127.28228113 4.11121679 128.56484049 3.66796875 129.84765625 C-4.17529454 152.07894724 -15.24721029 173.33171681 -31 191 C-31.76183594 191.85851562 -32.52367187 192.71703125 -33.30859375 193.6015625 C-34.82419269 195.29351275 -36.34736284 196.97871891 -37.87890625 198.65625 C-39.81831503 200.79924312 -41.69329299 202.98344638 -43.5625 205.1875 C-47.0775531 209.1967329 -50.89134282 212.60986792 -55 216 C-55.49967285 216.42265137 -55.9993457 216.84530273 -56.51416016 217.28076172 C-91.71588931 247 -91.71588931 247 -105 247 C-105.049648 244.33555747 -105.04983525 241.68447738 -104.99609375 239.01953125 C-104.95139895 235.96852312 -105.1563984 232.98920374 -105.41015625 229.94921875 C-106.14651072 216.58964479 -106.14651072 216.58964479 -102.36328125 212.02539062 C-98.0652933 208.40280078 -93.19376864 205.81468406 -88.22753906 203.22607422 C-83.30045666 200.51412685 -79.21297488 196.69301912 -75 193 C-74.0821875 192.20335937 -73.164375 191.40671875 -72.21875 190.5859375 C-65.25044056 185.11875384 -65.25044056 185.11875384 -61.6875 177.5 C-62.01248022 174.90015822 -62.78231672 173.28982673 -64 171 C-62.36271753 168.64038703 -60.69543941 166.31724965 -59 164 C-58.54238281 163.33226562 -58.08476562 162.66453125 -57.61328125 161.9765625 C-56.17623159 160.04737254 -54.90543116 158.47359279 -53 157 C-51.015625 156.73828125 -51.015625 156.73828125 -48.9375 156.875 C-44.97392885 157.40458003 -44.97392885 157.40458003 -42.30078125 155.03125 C-39.50804639 151.35185739 -37.30094139 147.60035465 -35.1875 143.5 C-34.75735596 142.66903809 -34.32721191 141.83807617 -33.8840332 140.98193359 C-23.05076739 119.54755768 -16.74559626 96.93618984 -15 73 C-14.87431641 71.45119141 -14.87431641 71.45119141 -14.74609375 69.87109375 C-14.49368386 64.40764099 -15.19120208 61.23199769 -19 57 C-22.26991312 54.91693757 -25.02271518 54.70338627 -28.859375 54.5859375 C-30.53193359 54.52792969 -30.53193359 54.52792969 -32.23828125 54.46875 C-33.39714844 54.4378125 -34.55601562 54.406875 -35.75 54.375 C-36.92433594 54.33632813 -38.09867187 54.29765625 -39.30859375 54.2578125 C-42.20557268 54.1636018 -45.10254626 54.07798398 -48 54 C-44.27215149 49.60336265 -40.47631344 45.29441729 -36.5625 41.0625 C-33.50161727 37.74242962 -30.45719255 34.41324152 -27.5 31 C-24.59914276 27.65499236 -21.6216899 24.38400914 -18.625 21.125 C-15.0921383 17.28161037 -11.56468251 13.43394063 -8.0625 9.5625 C-7.37285156 8.80066406 -6.68320312 8.03882813 -5.97265625 7.25390625 C-3.90550089 4.89202775 -1.94299437 2.46460359 0 0 Z " fill="#5290F6" transform="translate(445,205)"/>
<path d="M0 0 C62.7 0 125.4 0 190 0 C190 9.9 190 19.8 190 30 C127.3 30 64.6 30 0 30 C0 20.1 0 10.2 0 0 Z " fill="#90D9FA" transform="translate(161,266)"/>
<path d="M0 0 C6.74164028 2.0056762 12.85177162 4.71442154 19.0625 8 C19.97499512 8.48130371 20.88749023 8.96260742 21.82763672 9.45849609 C47.82202729 23.439398 70.24492579 43.54321311 88 67 C88.93005859 68.07121094 88.93005859 68.07121094 89.87890625 69.1640625 C91 71 91 71 90.72705078 72.92797852 C89.51434295 76.38407368 86.81376199 78.72500047 84.3125 81.3125 C83.21915442 82.46790121 82.12669765 83.62414418 81.03515625 84.78125 C80.51066895 85.33425781 79.98618164 85.88726562 79.44580078 86.45703125 C76.85870412 89.21799898 74.42819441 92.09965668 72 95 C68.6097977 91.92762917 66.00661457 88.6845726 63.375 84.9375 C59.13175255 79.0033344 54.38296843 73.68280424 49.35400391 68.42138672 C48.10191308 67.10698485 46.86843636 65.7749187 45.63671875 64.44140625 C31.63753178 49.73637792 13.96477878 38.74530717 -4.54272461 30.64941406 C-8.06358053 29.08016098 -9.81270609 28.28094086 -12 25 C-12.50144956 21.2391283 -12.22413683 19.40517042 -10.375 16.0625 C-8.60079135 13.77470463 -6.80237015 11.64939564 -4.875 9.5 C-2.25814694 6.53291156 -0.94935542 3.89235721 0 0 Z " fill="#5290F6" transform="translate(332,77)"/>
<path d="M0 0 C3.61195954 3.4651838 6.63491809 7.02738947 9.625 11.0625 C19.62528057 24.28733772 31.14358435 35.8255931 44.5 45.6875 C45.13405762 46.15913574 45.76811523 46.63077148 46.42138672 47.11669922 C50.26097006 49.91370092 54.11519164 52.06312804 58.375 54.1875 C61.88225844 56.37499008 62.82580401 57.34048942 63.89453125 61.38671875 C64.15166595 64.88717916 64.21531599 68.23800292 64.07910156 71.73730469 C63.99643751 74.10190476 63.99961737 76.45449712 64.0234375 78.8203125 C64.06235121 82.88156533 64.0452357 86.9388395 64 91 C36.09808865 82.58169393 9.37858318 58.97650687 -9 37 C-9.45101074 36.46665039 -9.90202148 35.93330078 -10.36669922 35.38378906 C-11.80609077 33.66704776 -13.21869856 31.93141221 -14.625 30.1875 C-15.07576904 29.64810791 -15.52653809 29.10871582 -15.9909668 28.55297852 C-17.93488074 26.07901098 -19 24.54576895 -19 21.3515625 C-17.83632262 18.61510241 -16.56282217 17.19370759 -14.375 15.1875 C-10.87483414 11.86956898 -7.67370774 8.42788104 -4.54296875 4.76171875 C-3.08919634 3.10184189 -1.57858414 1.54066019 0 0 Z " fill="#5290F6" transform="translate(108,361)"/>
<path d="M0 0 C0.70962891 0.01087646 1.41925781 0.02175293 2.15039062 0.03295898 C10.80056724 0.29656257 15.97796778 2.47263935 22.296875 8.34375 C28.21643774 14.92104193 30.54375391 22.16601434 30.3984375 30.9140625 C29.49499066 39.04508408 25.31066701 46.12301858 19.125 51.375 C11.35924449 56.11942814 4.25961006 58.55550795 -4.875 57.375 C-13.98223027 54.3090877 -20.6051302 49.41693853 -25.18359375 40.95703125 C-28.84260404 32.79072801 -28.90975351 25.78017602 -25.78125 17.4375 C-21.07108974 6.71782492 -11.79933472 -0.24419153 0 0 Z M-10.75 21.625 C-12.24251074 25.27335958 -12.55396674 28.52752181 -11.875 32.375 C-9.65363437 36.73545847 -7.43932971 39.50777421 -2.875 41.375 C1.95223092 41.91135899 4.10390786 41.89517901 8.4375 39.6875 C12.5919881 36.11270791 13.95141779 33.93723989 14.5625 28.4375 C14.38494127 24.1599487 12.93513746 21.64083542 10.125 18.375 C6.6628039 15.48983658 3.63703116 14.83582135 -0.8828125 15.0234375 C-5.25954766 15.79580253 -7.9889496 18.31173952 -10.75 21.625 Z " fill="#030200" transform="translate(254.875,70.625)"/>
<path d="M0 0 C3.70330232 0.709143 4.67914309 1.55943022 6.9375 4.5625 C7.33734481 7.33382797 7.49518045 9.70992076 7.47094727 12.48046875 C7.47956284 13.27442047 7.48817841 14.06837219 7.49705505 14.88638306 C7.5197377 17.50792135 7.51297274 20.12839272 7.50390625 22.75 C7.50914059 24.57316404 7.51541637 26.39632537 7.52268982 28.21948242 C7.53309805 32.03935495 7.52852619 35.85885504 7.51391602 39.67871094 C7.49672151 44.57517715 7.52022901 49.47047067 7.55540562 54.36680603 C7.57735925 58.13122339 7.57594322 61.8953592 7.5676403 65.65982056 C7.56681978 67.46515184 7.57370254 69.27050359 7.58841133 71.07577515 C7.60582178 73.59942877 7.59134658 76.12096316 7.56860352 78.64453125 C7.58029572 79.39062653 7.59198792 80.1367218 7.60403442 80.90542603 C7.53468808 84.68500898 7.22180794 86.26088575 4.58946228 89.0534668 C1.9375 90.5625 1.9375 90.5625 -1.125 90.625 C-4.8769563 89.26790942 -5.93254542 87.92179285 -8.0625 84.5625 C-8.45456796 81.84535246 -8.62077441 79.53434399 -8.59594727 76.82226562 C-8.60887062 75.67741951 -8.60887062 75.67741951 -8.62205505 74.50944519 C-8.64469197 71.99553166 -8.63798135 69.48273486 -8.62890625 66.96875 C-8.63414258 65.21667144 -8.6404191 63.46459571 -8.64768982 61.71252441 C-8.65808956 58.04405432 -8.65353838 54.37597223 -8.63891602 50.70751953 C-8.62172161 46.00957977 -8.64523306 41.3128623 -8.68040562 36.6150589 C-8.7023791 32.99814776 -8.70093844 29.38152918 -8.6926403 25.76457214 C-8.69182089 24.03263508 -8.69868252 22.30067651 -8.71341133 20.56880188 C-8.730859 18.14601753 -8.71631634 15.72543082 -8.69360352 13.30273438 C-8.70529572 12.58985764 -8.71698792 11.8769809 -8.72903442 11.14250183 C-8.65570043 7.29227764 -8.14329729 5.66396326 -5.71446228 2.6138916 C-3.0625 0.5625 -3.0625 0.5625 0 0 Z " fill="#020503" transform="translate(287.0625,349.4375)"/>
<path d="M0 0 C4.16686338 0.76534225 5.44095126 2.27042315 8.0625 5.5625 C8.55333215 8.3493784 8.73918 10.52392306 8.69360352 13.30273438 C8.70075882 14.06596512 8.70791412 14.82919586 8.71528625 15.61555481 C8.73214734 18.12973524 8.71278774 20.64212588 8.69140625 23.15625 C8.6922352 24.90832669 8.69469555 26.66040331 8.69871521 28.41247559 C8.70157142 32.08104922 8.68688973 35.74901172 8.65942383 39.41748047 C8.62534101 44.11531411 8.63136074 48.81205516 8.6500864 53.5099411 C8.66066488 57.12686233 8.65171094 60.74353018 8.63670158 64.36042786 C8.63152551 66.09234362 8.6319946 67.82428591 8.63824654 69.55619812 C8.64370916 71.97879754 8.62329227 74.39984335 8.59594727 76.82226562 C8.60247314 77.53514236 8.60899902 78.2480191 8.61572266 78.98249817 C8.52426228 83.75780103 7.49137263 86.24144346 4.0625 89.5625 C1.125 90.625 1.125 90.625 -1.9375 90.5625 C-4.58946228 89.0534668 -4.58946228 89.0534668 -6.9375 86.5625 C-7.43735469 83.72410148 -7.61305968 81.48134 -7.56860352 78.64453125 C-7.57575882 77.85057953 -7.58291412 77.05662781 -7.59028625 76.23861694 C-7.60718125 73.61682415 -7.58776737 70.99673946 -7.56640625 68.375 C-7.56723488 66.55183775 -7.56969404 64.72867558 -7.57371521 62.90551758 C-7.57657375 59.08554584 -7.56186682 55.26616026 -7.53442383 51.44628906 C-7.50034075 46.54992469 -7.50635861 41.65460851 -7.5250864 36.75819397 C-7.53565532 32.99376694 -7.5267196 29.2295838 -7.51170158 25.46517944 C-7.5065185 23.65986861 -7.50700311 21.85453233 -7.51324654 20.04922485 C-7.51869754 17.52574914 -7.49832892 15.00377352 -7.47094727 12.48046875 C-7.47747314 11.73437347 -7.48399902 10.9882782 -7.49072266 10.21957397 C-7.42724936 6.7792558 -7.18150804 4.88697182 -5.0877533 2.1027832 C-2.9375 0.5625 -2.9375 0.5625 0 0 Z " fill="#030503" transform="translate(224.9375,349.4375)"/>
<path d="M0 0 C1.66856393 2.09458025 2.94259925 3.95199176 4.25 6.25 C4.600625 6.82363281 4.95125 7.39726563 5.3125 7.98828125 C7.23889381 11.24092311 8.95569242 14.17688881 9 18 C7.41796875 20.28125 7.41796875 20.28125 5.1875 22.5 C-0.10816629 27.82378488 -1.29774959 31.74125984 -1.375 39.25 C-1.34673829 47.26268187 0.10066608 52.96581334 5.6875 58.8125 C6.450625 59.534375 7.21375 60.25625 8 61 C8.8125 62.796875 8.8125 62.796875 9 65 C7.40539975 68.8908246 5.18332215 72.41235656 3 76 C2.360625 77.0725 1.72125 78.145 1.0625 79.25 C-1 81 -1 81 -4.5 80.875 C-5.655 80.58625 -6.81 80.2975 -8 80 C-9.2065625 79.7215625 -9.2065625 79.7215625 -10.4375 79.4375 C-10.953125 79.293125 -11.46875 79.14875 -12 79 C-10.88252847 76.1633415 -9.71944775 73.42810503 -8.375 70.6875 C-6.8543817 66.60947818 -5.7395004 63.22776263 -7 59 C-8.86979505 56.50693993 -10.92184956 54.32649497 -13.0859375 52.0859375 C-17.03467706 47.78261725 -17.45868997 42.93354357 -17.31640625 37.30859375 C-16.58869437 31.99899224 -14.2869512 28.13730571 -10.3125 24.625 C-9.549375 24.08875 -8.78625 23.5525 -8 23 C-6.36598142 19.73196284 -6.45241122 16.53020003 -7 13 C-8.14473089 10.25424689 -9.45863791 7.69922196 -10.90625 5.1015625 C-12 3 -12 3 -12 1 C-4.2318314 -1.58938953 -4.2318314 -1.58938953 0 0 Z " fill="#DE8222" transform="translate(308,59)"/>
<path d="M0 0 C62.7 0 125.4 0 190 0 C190 9.9 190 19.8 190 30 C184.39 30 178.78 30 173 30 C173 20.43 173 10.86 173 1 C116.24 1 59.48 1 1 1 C1 10.57 1 20.14 1 30 C0.67 30 0.34 30 0 30 C0 20.1 0 10.2 0 0 Z " fill="#60A5D0" transform="translate(161,266)"/>
<path d="M0 0 C4.29 0 8.58 0 13 0 C13.721875 1.835625 14.44375 3.67125 15.1875 5.5625 C17.28707669 10.631478 19.59401931 14.71819571 23 19 C15.23233421 18.96756716 9.80502552 17.28481957 4 12 C0.77279855 8.04211143 0 5.22709052 0 0 Z " fill="#DE8222" transform="translate(253,34)"/>
<path d="M0 0 C-0.763125 0.845625 -1.52625 1.69125 -2.3125 2.5625 C-6.20672117 7.23997812 -7.81191554 12.05957771 -9 18 C-13.62 18 -18.24 18 -23 18 C-22.63880252 12.10044112 -21.14188224 8.29094741 -17 4 C-11.98404434 0.12988037 -6.20320224 -2.14726231 0 0 Z " fill="#DF8322" transform="translate(276,146)"/>
</svg>
